<?xml version="1.0" encoding="UTF-8" standalone="no"?><svg xmlns="http://www.w3.org/2000/svg" xmlns:xlink="http://www.w3.org/1999/xlink" contentScriptType="application/ecmascript" contentStyleType="text/css" height="290px" preserveAspectRatio="none" style="width:704px;height:290px;" version="1.1" viewBox="0 0 704 290" width="704px" zoomAndPan="magnify"><defs><filter height="300%" id="fp4ejgp4db228" width="300%" x="-1" y="-1"><feGaussianBlur result="blurOut" stdDeviation="2.0"/><feColorMatrix in="blurOut" result="blurOut2" type="matrix" values="0 0 0 0 0 0 0 0 0 0 0 0 0 0 0 0 0 0 .4 0"/><feOffset dx="4.0" dy="4.0" in="blurOut2" result="blurOut3"/><feBlend in="SourceGraphic" in2="blurOut3" mode="normal"/></filter></defs><g><!--MD5=[8435d1dbd85040f01a7b0bbbf984e777]
cluster dlt--><path d="M258.8413,49.5197 C261.3262,43.9112 266.1056,43.5431 269.6556,48.4213 C273.538,42.4657 279.3905,42.5624 282.7823,48.9432 C286.6047,42.8713 290.3488,43.5712 294.2943,48.818 C296.8672,41.8466 303.0828,42.2529 307.0779,47.306 C309.8606,42.5584 314.4729,41.5139 317.5201,47.037 C321.384,41.1262 326.4045,40.2297 330.3661,46.9375 C334.3694,42.2005 338.6697,43.3753 341.4502,48.3352 C344.3374,42.9258 349.8397,41.3285 353.7638,47.2036 C358.4585,42.3456 362.0864,43.4284 365.4221,48.7586 C369.1,42.7547 375.2753,43.2061 378.5975,49.1507 C382.4023,43.083 385.7534,43.9544 389.7197,48.9889 C398.7813,41.7987 404.8196,45.6625 408,55.3564 C409.1193,55.1395 409.8362,55.8737 409.2934,56.9805 C414.7961,59.8786 415.0054,64.9068 410.0867,68.5212 C416.6603,71.3033 416.7148,75.2233 411.7116,79.6897 C416.7462,82.6252 417.6925,86.9529 412.3702,90.5182 C417.3708,93.9199 417.504,98.6284 412.3265,101.9913 C416.7979,105.9992 417.8438,110.0491 411.7102,113.4884 C416.4486,117.4945 415.1097,120.553 410.5136,123.4362 C416.6322,126.6239 415.5268,132.0386 410.4853,135.1994 C415.5362,144.1146 410.9883,151.7558 401,152.3564 C401.9793,151.8364 402.702,152.2307 402.7844,153.3392 C399.8668,159.6875 394.2287,160.2631 390.1864,154.51 C386.0679,161.0067 380.9953,159.233 377.7875,153.5806 C373.962,159.1247 368.5265,159.0641 365.1407,153.0975 C362.0387,159.2111 357.2978,159.4379 353.1064,154.2585 C349.3533,159.2833 345.8103,160.3991 341.656,154.6863 C337.274,159.4496 333.5111,160.1922 329.4725,154.2938 C326.5274,159.7839 321.0093,159.672 318.3057,154.0511 C315.4508,160.0195 309.7637,160.0601 306.7836,154.1728 C302.5467,161.1055 297.6031,160.8297 293.3875,154.1518 C290.4802,158.9895 285.8178,159.6146 282.8809,154.1821 C278.5267,161.2063 272.8142,160.8961 269.2162,153.4671 C258.7503,159.9238 252.8455,156.9543 250,145.3564 C250.3805,145.2036 250.5963,145.3751 250.5142,145.7816 C245.5507,142.8484 244.786,138.5435 249.3375,134.6082 C244.7842,132.7348 244.375,128.0617 248.0093,125.0504 C241.6083,122.0778 241.8026,116.3281 247.2765,112.6536 C241.2737,109.6567 242.5922,104.4036 247.4086,101.5354 C242.4807,98.751 242.0907,93.8251 247.5531,91.1857 C241.7858,86.7842 241.7864,82.5833 248.5018,79.1671 C244.2647,75.7277 244.986,70.3119 250.1607,68.3106 C241.5778,57.7828 244.2593,51.5755 257,48.3564 C258.1424,47.8642 258.7688,48.3184 258.8413,49.5197 " fill="#FFFFFF" filter="url(#fp4ejgp4db228)" style="stroke:#000000;stroke-width:1.5;"/><text fill="#000000" font-family="sans-serif" font-size="14" font-weight="bold" lengthAdjust="spacing" textLength="88" x="285" y="67.8896">DLT Network</text><!--MD5=[890d1483761996419503f86f9a2a7b41]
cluster entityborder1--><rect fill="#FFFFFF" filter="url(#fp4ejgp4db228)" height="110" style="stroke:#000000;stroke-width:1.5;" width="124" x="7" y="45.3564"/><path d="M125,45.3564 L125,55.9658 L115,65.9658 L7,65.9658 " fill="none" style="stroke:#000000;stroke-width:1.5;"/><text fill="#000000" font-family="sans-serif" font-size="14" font-weight="bold" lengthAdjust="spacing" textLength="108" x="10" y="60.8896">Entitiy Border 1</text><!--MD5=[88f519590fe7ddc02f9ccb3cc4dd50ca]
cluster entityborder2--><rect fill="#FFFFFF" filter="url(#fp4ejgp4db228)" height="233" style="stroke:#000000;stroke-width:1.5;" width="159" x="533" y="45.3564"/><path d="M651,45.3564 L651,55.9658 L641,65.9658 L533,65.9658 " fill="none" style="stroke:#000000;stroke-width:1.5;"/><text fill="#000000" font-family="sans-serif" font-size="14" font-weight="bold" lengthAdjust="spacing" textLength="108" x="536" y="60.8896">Entitiy Border 2</text><!--MD5=[f6c8693f2725baec96dbc257309cbcf0]
entity sc--><rect fill="#FEFECE" filter="url(#fp4ejgp4db228)" height="47.6094" style="stroke:#A80036;stroke-width:1.5;" width="142" x="258" y="96.3564"/><rect fill="#FEFECE" height="10" style="stroke:#A80036;stroke-width:1.5;" width="15" x="380" y="101.3564"/><rect fill="#FEFECE" height="2" style="stroke:#A80036;stroke-width:1.5;" width="4" x="378" y="103.3564"/><rect fill="#FEFECE" height="2" style="stroke:#A80036;stroke-width:1.5;" width="4" x="378" y="107.3564"/><text fill="#000000" font-family="sans-serif" font-size="14" lengthAdjust="spacing" textLength="102" x="273" y="130.8896">Smart Contracts</text><!--MD5=[2199ae9b406d79be0f6ce9b4ec3f66d0]
entity device1--><rect fill="#FEFECE" filter="url(#fp4ejgp4db228)" height="37.6094" style="stroke:#A80036;stroke-width:1.5;" width="75" x="31.5" y="101.3564"/><text fill="#000000" font-family="sans-serif" font-size="14" lengthAdjust="spacing" textLength="55" x="41.5" y="125.8896">Device 1</text><!--MD5=[f89aa4f680702005697b50a8a16a2207]
entity device2--><rect fill="#FEFECE" filter="url(#fp4ejgp4db228)" height="37.6094" style="stroke:#A80036;stroke-width:1.5;" width="75" x="549.5" y="224.3564"/><text fill="#000000" font-family="sans-serif" font-size="14" lengthAdjust="spacing" textLength="55" x="559.5" y="248.8896">Device 2</text><!--MD5=[d4bb979d073464a818782f912af531d1]
entity node2--><rect fill="#FEFECE" filter="url(#fp4ejgp4db228)" height="37.6094" style="stroke:#A80036;stroke-width:1.5;" width="65" x="551.5" y="101.3564"/><text fill="#000000" font-family="sans-serif" font-size="14" lengthAdjust="spacing" textLength="45" x="561.5" y="125.8896">Node 2</text><!--MD5=[ec49d22a2d8f7f2f571b46353a42925c]
link device1 to sc--><path d="M106.53,120.3564 C144.59,120.3564 204.57,120.3564 252.67,120.3564 " fill="none" id="device1-to-sc" style="stroke:#A80036;stroke-width:1.0;"/><polygon fill="#A80036" points="257.88,120.3564,248.88,116.3564,252.88,120.3564,248.88,124.3564,257.88,120.3564" style="stroke:#A80036;stroke-width:1.0;"/><text fill="#000000" font-family="sans-serif" font-size="13" lengthAdjust="spacing" textLength="115" x="124.75" y="113.8516">DLT communication</text><!--MD5=[737ed257406d4bf9ecf6b05776a21615]
reverse link sc to node2--><path d="M405.31,120.3564 C454,120.3564 514.64,120.3564 551.28,120.3564 " fill="none" id="sc-backto-node2" style="stroke:#A80036;stroke-width:1.0;"/><polygon fill="#A80036" points="400.03,120.3564,409.03,124.3564,405.03,120.3564,409.03,116.3564,400.03,120.3564" style="stroke:#A80036;stroke-width:1.0;"/><text fill="#000000" font-family="sans-serif" font-size="13" lengthAdjust="spacing" textLength="115" x="418.25" y="113.8516">DLT communication</text><!--MD5=[10bdb672a86e28c22fa816e77cedd8b0]
link node2 to device2--><path d="M584.57,144.5164 C585.1,165.8764 585.89,197.4364 586.42,218.8964 " fill="none" id="node2-device2" style="stroke:#A80036;stroke-width:1.0;"/><polygon fill="#A80036" points="586.55,224.1164,590.3173,215.0166,586.4215,219.1181,582.32,215.2222,586.55,224.1164" style="stroke:#A80036;stroke-width:1.0;"/><polygon fill="#A80036" points="584.45,139.4664,580.6827,148.5663,584.5785,144.4648,588.68,148.3606,584.45,139.4664" style="stroke:#A80036;stroke-width:1.0;"/><text fill="#000000" font-family="sans-serif" font-size="13" lengthAdjust="spacing" textLength="90" x="586" y="190.8516">Communication</text><!--MD5=[6daaeeb18234abea16a609cf068aa36e]
link device1 to node2--><path d="M102.28,98.5164 C135.99,77.6064 190.38,47.1264 242,32.3564 C272.26,23.6964 257.43,24.4764 393,30.3564 C403.25,30.7964 406.15,29.4764 416,32.3564 C466.35,47.0864 519.11,77.5764 551.77,98.4964 " fill="none" id="device1-node2" style="stroke:#A80036;stroke-width:1.0;"/><polygon fill="#A80036" points="556.05,101.2564,550.6622,93.0119,551.8506,98.5426,546.32,99.731,556.05,101.2564" style="stroke:#A80036;stroke-width:1.0;"/><polygon fill="#A80036" points="97.87,101.2664,107.6241,99.9032,102.114,98.6229,103.3943,93.1128,97.87,101.2664" style="stroke:#A80036;stroke-width:1.0;"/><text fill="#000000" font-family="sans-serif" font-size="13" lengthAdjust="spacing" textLength="126" x="266" y="20.8516">Off-chain transactions</text><!--MD5=[dec1a3a1c93c5eb6f60a9b7a0d32e9ba]
@startuml current-structure

cloud "DLT Network" as dlt {
    component "Smart Contracts" as sc
}

frame "Entitiy Border 1" as entityborder1 {
    agent "Device 1" as device1
}

frame "Entitiy Border 2" as entityborder2 {
    agent "Device 2" as device2
    agent "Node 2" as node2
}

device1 -right-> sc : DLT communication
node2 -left-> sc : DLT communication

node2 <- -> device2: Communication

device1 <-right-> node2 : Off-chain transactions

@enduml

PlantUML version 1.2021.00(Sun Jan 10 15:55:05 IST 2021)
(GPL source distribution)
Java Runtime: OpenJDK Runtime Environment
JVM: OpenJDK 64-Bit Server VM
Default Encoding: Cp1252
Language: en
Country: IN
--></g></svg>