<?xml version="1.0" encoding="UTF-8" standalone="no"?><svg xmlns="http://www.w3.org/2000/svg" xmlns:xlink="http://www.w3.org/1999/xlink" contentScriptType="application/ecmascript" contentStyleType="text/css" height="424px" preserveAspectRatio="none" style="width:844px;height:424px;" version="1.1" viewBox="0 0 844 424" width="844px" zoomAndPan="magnify"><defs><filter height="300%" id="fpbrtc5tig1nb" width="300%" x="-1" y="-1"><feGaussianBlur result="blurOut" stdDeviation="2.0"/><feColorMatrix in="blurOut" result="blurOut2" type="matrix" values="0 0 0 0 0 0 0 0 0 0 0 0 0 0 0 0 0 0 .4 0"/><feOffset dx="4.0" dy="4.0" in="blurOut2" result="blurOut3"/><feBlend in="SourceGraphic" in2="blurOut3" mode="normal"/></filter></defs><g><!--MD5=[8435d1dbd85040f01a7b0bbbf984e777]
cluster dlt--><path d="M227.7982,202.5271 C230.9997,197.1586 236.4676,196.5088 239.7432,202.4489 C242.1443,195.459 247.2735,196.04 251.5245,200.5546 C253.9828,195.7322 258.5433,195.6395 261.2426,200.3078 C263.9025,193.9982 269.3635,193.0343 273.2259,199.1479 C276.6408,194.5283 279.902,193.1812 283.9455,198.4677 C287.3635,192.385 292.0387,192.4686 295.8889,198.0243 C299.1769,193.064 302.5371,193.1882 306.1418,197.6807 C310.34,191.7774 315.2151,191.7818 318.545,198.5317 C322.6805,192.9551 326.6048,193.5036 329.7748,199.4709 C333.5323,194.7062 338.4632,194.1792 341.4424,200.3047 C345.188,196.3469 348.3357,196.8336 351.3789,201.1484 C355.3498,195.6939 360.4929,196.0492 363.8031,201.876 C367.8489,196.32 371.9359,197.8528 374.8332,203.0538 C378.0102,198.7692 382.857,197.9889 385.5833,203.546 C393.459,205.4231 393.9379,211.1238 388.8647,216.3257 C394.7162,220.3686 395.5938,226.0156 389.3543,230.4769 C397.3583,235.0679 396.8814,239.8921 390.9775,245.9427 C397.7522,250.4636 397.2336,256.1461 389.8639,259.5057 C395.9983,264.105 393.636,270.3393 387.6199,272.9036 C394.8891,278.035 392.3496,284.7856 385.0839,287.3688 C382.5313,292.0897 377.3759,293.0744 374.4659,287.7464 C371.9852,293.8048 367.5131,294.4833 363.6759,289.0163 C361.6517,294.8973 356.6178,295.8452 352.6941,290.9524 C349.1108,296.5931 345.0103,296.1106 340.9855,291.4546 C338.807,296.9663 333.682,296.9465 330.6568,292.3169 C328.024,298.478 321.5507,299.5992 317.5762,293.7821 C314.0769,299.7117 309.1259,298.3567 306.2141,293.1811 C302.5239,298.5315 299.0879,298.4576 295.105,293.4964 C290.9749,298.9126 286.9679,298.408 283.5193,292.7814 C279.2672,296.4508 275.7905,296.8864 273.4079,290.8365 C270.0822,296.4401 265.3451,296.3901 261.8664,290.9971 C257.4876,296.0672 253.5327,295.7488 251.0126,289.2528 C247.0234,294.149 242.2088,293.0136 240.0345,287.3637 C236.5356,293.1008 232.641,292.8801 228.7335,287.7902 C221.5779,284.2594 220.4192,279.9039 224.9935,273.3376 C219.0457,269.9225 218.3109,263.7819 223.9793,259.5144 C216.5044,257.5623 215.9133,250.503 220.867,245.7422 C213.5693,240.6023 214.7448,234.114 222.5315,230.6362 C216.5633,224.3357 219.0542,220.2908 225.6941,216.8913 C218.7729,211.5573 219.8617,205.6848 227.7982,202.5271 " fill="#FFFFFF" filter="url(#fpbrtc5tig1nb)" style="stroke:#000000;stroke-width:1.5;"/><text fill="#000000" font-family="sans-serif" font-size="14" font-weight="bold" lengthAdjust="spacing" textLength="88" x="262" y="221.5332">DLT Network</text><!--MD5=[890d1483761996419503f86f9a2a7b41]
cluster entityborder1--><rect fill="#FFFFFF" filter="url(#fpbrtc5tig1nb)" height="282" style="stroke:#000000;stroke-width:1.5;" width="124" x="7" y="7"/><path d="M125,7 L125,17.6094 L115,27.6094 L7,27.6094 " fill="none" style="stroke:#000000;stroke-width:1.5;"/><text fill="#000000" font-family="sans-serif" font-size="14" font-weight="bold" lengthAdjust="spacing" textLength="108" x="10" y="22.5332">Entitiy Border 1</text><!--MD5=[88f519590fe7ddc02f9ccb3cc4dd50ca]
cluster entityborder2--><rect fill="#FFFFFF" filter="url(#fpbrtc5tig1nb)" height="405" style="stroke:#000000;stroke-width:1.5;" width="397" x="435" y="7"/><path d="M553,7 L553,17.6094 L543,27.6094 L435,27.6094 " fill="none" style="stroke:#000000;stroke-width:1.5;"/><text fill="#000000" font-family="sans-serif" font-size="14" font-weight="bold" lengthAdjust="spacing" textLength="108" x="438" y="22.5332">Entitiy Border 2</text><!--MD5=[f6c8693f2725baec96dbc257309cbcf0]
entity sc--><rect fill="#FEFECE" filter="url(#fpbrtc5tig1nb)" height="47.6094" style="stroke:#A80036;stroke-width:1.5;" width="142" x="235" y="230"/><rect fill="#FEFECE" height="10" style="stroke:#A80036;stroke-width:1.5;" width="15" x="357" y="235"/><rect fill="#FEFECE" height="2" style="stroke:#A80036;stroke-width:1.5;" width="4" x="355" y="237"/><rect fill="#FEFECE" height="2" style="stroke:#A80036;stroke-width:1.5;" width="4" x="355" y="241"/><text fill="#000000" font-family="sans-serif" font-size="14" lengthAdjust="spacing" textLength="102" x="250" y="264.5332">Smart Contracts</text><!--MD5=[2199ae9b406d79be0f6ce9b4ec3f66d0]
entity device1--><rect fill="#FEFECE" filter="url(#fpbrtc5tig1nb)" height="37.6094" style="stroke:#A80036;stroke-width:1.5;" width="75" x="30.5" y="235"/><text fill="#000000" font-family="sans-serif" font-size="14" lengthAdjust="spacing" textLength="55" x="40.5" y="259.5332">Device 1</text><!--MD5=[08697289393bf1a7348b8f8a03e04260]
entity node1--><rect fill="#FEFECE" filter="url(#fpbrtc5tig1nb)" height="37.6094" style="stroke:#A80036;stroke-width:1.5;" width="65" x="36.5" y="43"/><text fill="#000000" font-family="sans-serif" font-size="14" lengthAdjust="spacing" textLength="45" x="46.5" y="67.5332">Node 1</text><!--MD5=[0383de1b5b7c5b96c3b035a1530c5250]
entity funding2--><rect fill="#FEFECE" filter="url(#fpbrtc5tig1nb)" height="37.6094" style="stroke:#A80036;stroke-width:1.5;" width="161" x="451.5" y="43"/><text fill="#000000" font-family="sans-serif" font-size="14" lengthAdjust="spacing" textLength="141" x="461.5" y="67.5332">Funding Component 2</text><!--MD5=[f89aa4f680702005697b50a8a16a2207]
entity device2--><rect fill="#FEFECE" filter="url(#fpbrtc5tig1nb)" height="37.6094" style="stroke:#A80036;stroke-width:1.5;" width="75" x="517.5" y="358"/><text fill="#000000" font-family="sans-serif" font-size="14" lengthAdjust="spacing" textLength="55" x="527.5" y="382.5332">Device 2</text><!--MD5=[3b4874ac4bfbc91e04a3be04c5c403d1]
entity gateway2--><rect fill="#FEFECE" filter="url(#fpbrtc5tig1nb)" height="37.6094" style="stroke:#A80036;stroke-width:1.5;" width="87" x="577.5" y="235"/><text fill="#000000" font-family="sans-serif" font-size="14" lengthAdjust="spacing" textLength="67" x="587.5" y="259.5332">Gateway 2</text><!--MD5=[d7908c743b34835fcf646a08b5fa592d]
entity watcher2--><rect fill="#FEFECE" filter="url(#fpbrtc5tig1nb)" height="37.6094" style="stroke:#A80036;stroke-width:1.5;" width="168" x="648" y="43"/><text fill="#000000" font-family="sans-serif" font-size="14" lengthAdjust="spacing" textLength="148" x="658" y="67.5332">Watching Component 2</text><!--MD5=[fe56d074f6969f7937db4174b47e64fd]
link funding2 to sc--><path d="M451.25,69.29 C393.06,75.69 321.63,88.06 303,111 C277.03,142.98 286.23,193.69 295.76,225.07 " fill="none" id="funding2-to-sc" style="stroke:#A80036;stroke-width:1.0;"/><polygon fill="#A80036" points="297.29,229.94,298.4068,220.1547,295.7905,225.1701,290.775,222.5539,297.29,229.94" style="stroke:#A80036;stroke-width:1.0;"/><text fill="#000000" font-family="sans-serif" font-size="13" lengthAdjust="spacing" textLength="115" x="304.5" y="133.4951">DLT communication</text><text fill="#000000" font-family="sans-serif" font-size="13" lengthAdjust="spacing" textLength="104" x="310" y="149.8467">(Deposit,Register,</text><text fill="#000000" font-family="sans-serif" font-size="13" lengthAdjust="spacing" textLength="116" x="304" y="166.1982">Conclude,Withdraw)</text><!--MD5=[3b2ca626071807a90531ba4e7dd9d028]
link node1 to sc--><path d="M84.39,81.08 C91.9,90.01 101.02,100.99 109,111 C132.32,140.27 131.31,153.97 160,178 C184.37,198.41 215.22,215.28 242.28,227.81 " fill="none" id="node1-to-sc" style="stroke:#A80036;stroke-width:1.0;"/><polygon fill="#A80036" points="246.93,229.94,240.4006,222.5666,242.3806,227.8656,237.0816,229.8456,246.93,229.94" style="stroke:#A80036;stroke-width:1.0;"/><text fill="#000000" font-family="sans-serif" font-size="13" lengthAdjust="spacing" textLength="115" x="161.5" y="125.4951">DLT communication</text><text fill="#000000" font-family="sans-serif" font-size="13" lengthAdjust="spacing" textLength="104" x="167" y="141.8467">(Deposit,Register,</text><text fill="#000000" font-family="sans-serif" font-size="13" lengthAdjust="spacing" textLength="48" x="195" y="158.1982">Dispute,</text><text fill="#000000" font-family="sans-serif" font-size="13" lengthAdjust="spacing" textLength="116" x="161" y="174.5498">Conclude,Withdraw)</text><!--MD5=[b99a6c0fd991be4865552bf1284edeaa]
link watcher2 to sc--><path d="M647.95,77.85 C641.88,78.92 635.85,79.98 630,81 C553.13,94.45 519.2,63.87 457,111 C430.7,130.93 446.93,153.34 425,178 C407.04,198.19 382.39,214.93 360.17,227.44 " fill="none" id="watcher2-to-sc" style="stroke:#A80036;stroke-width:1.0;"/><polygon fill="#A80036" points="355.76,229.88,365.5721,229.0304,360.1368,227.4627,361.7045,222.0274,355.76,229.88" style="stroke:#A80036;stroke-width:1.0;"/><text fill="#000000" font-family="sans-serif" font-size="13" lengthAdjust="spacing" textLength="115" x="458" y="141.9951">DLT communication</text><text fill="#000000" font-family="sans-serif" font-size="13" lengthAdjust="spacing" textLength="52" x="489.5" y="158.3467">(Dispute)</text><!--MD5=[7956d512d9c498e951b09c92856722be]
link node1 to device1--><path d="M64.31,86.37 C62.96,94.17 61.67,102.93 61,111 C57.55,152.68 61.73,201.4 64.96,229.58 " fill="none" id="node1-device1" style="stroke:#A80036;stroke-width:1.0;"/><polygon fill="#A80036" points="65.55,234.59,68.4663,225.1828,64.9633,229.6245,60.5216,226.1215,65.55,234.59" style="stroke:#A80036;stroke-width:1.0;"/><polygon fill="#A80036" points="65.25,81.15,59.7212,89.3006,64.3656,86.0712,67.595,90.7156,65.25,81.15" style="stroke:#A80036;stroke-width:1.0;"/><text fill="#000000" font-family="sans-serif" font-size="13" lengthAdjust="spacing" textLength="42" x="62" y="149.9951">Informs</text><!--MD5=[dcd42b6f4d2e390fc3cf3ef4b1dbb71a]
link funding2 to gateway2--><path d="M559.86,84.74 C567.99,92.29 576.23,101.31 582,111 C604.53,148.85 614.4,200.06 618.44,229.51 " fill="none" id="funding2-gateway2" style="stroke:#A80036;stroke-width:1.0;"/><polygon fill="#A80036" points="619.13,234.75,621.9393,225.3103,618.487,229.7915,614.0058,226.3392,619.13,234.75" style="stroke:#A80036;stroke-width:1.0;"/><polygon fill="#A80036" points="555.89,81.16,559.8865,90.1615,559.6001,84.5119,565.2496,84.2254,555.89,81.16" style="stroke:#A80036;stroke-width:1.0;"/><text fill="#000000" font-family="sans-serif" font-size="13" lengthAdjust="spacing" textLength="87" x="609" y="149.9951">Communicates</text><!--MD5=[508f045830bdd5f9a7c7501c2d6c9b03]
link watcher2 to gateway2--><path d="M730.61,86.68 C728.26,111.09 721.95,149.48 705,178 C692.2,199.54 671.17,218.3 653.35,231.68 " fill="none" id="watcher2-gateway2" style="stroke:#A80036;stroke-width:1.0;"/><polygon fill="#A80036" points="648.9,234.96,658.5221,232.8589,652.9307,232.0013,653.7882,226.4099,648.9,234.96" style="stroke:#A80036;stroke-width:1.0;"/><polygon fill="#A80036" points="731.08,81.4,726.2994,90.0108,730.6376,86.3804,734.268,90.7186,731.08,81.4" style="stroke:#A80036;stroke-width:1.0;"/><text fill="#000000" font-family="sans-serif" font-size="13" lengthAdjust="spacing" textLength="42" x="728" y="149.9951">Informs</text><!--MD5=[e3d3a91929bed52b4c9c4585e7e33d8c]
link gateway2 to device2--><path d="M608.69,277.57 C596.89,299.2 579.19,331.65 567.38,353.31 " fill="none" id="gateway2-device2" style="stroke:#A80036;stroke-width:1.0;"/><polygon fill="#A80036" points="564.95,357.76,572.7794,351.7851,567.3503,353.3738,565.7615,347.9446,564.95,357.76" style="stroke:#A80036;stroke-width:1.0;"/><polygon fill="#A80036" points="611.12,273.11,603.3056,279.1046,608.7308,277.5022,610.3331,282.9274,611.12,273.11" style="stroke:#A80036;stroke-width:1.0;"/><text fill="#000000" font-family="sans-serif" font-size="13" lengthAdjust="spacing" textLength="42" x="590" y="324.4951">Informs</text><!--MD5=[8e52a9a25fdef66215b142ca36eda936]
link device1 to device2--><path d="M110.7,269.36 C140.79,279.21 182.12,292.22 219,302 C323.45,329.7 448.08,355.21 512.2,367.79 " fill="none" id="device1-device2" style="stroke:#A80036;stroke-width:1.0;"/><polygon fill="#A80036" points="517.46,368.82,509.3938,363.1688,512.5527,367.8614,507.8601,371.0204,517.46,368.82" style="stroke:#A80036;stroke-width:1.0;"/><polygon fill="#A80036" points="105.6,267.68,112.9032,274.2878,110.3505,269.2397,115.3987,266.687,105.6,267.68" style="stroke:#A80036;stroke-width:1.0;"/><text fill="#000000" font-family="sans-serif" font-size="13" lengthAdjust="spacing" textLength="126" x="320" y="324.4951">Off-chain transactions</text><!--MD5=[98f4274fd7c2023b493c7e0613c3671d]
@startuml structure

cloud "DLT Network" as dlt {
    component "Smart Contracts" as sc
}

frame "Entitiy Border 1" as entityborder1 {
    agent "Device 1" as device1
    agent "Node 1" as node1
}

frame "Entitiy Border 2" as entityborder2 {
    agent "Funding Component 2" as funding2
    agent "Device 2" as device2
    agent "Gateway 2" as gateway2
    agent "Watching Component 2" as watcher2
}

funding2 - -> sc : DLT communication\n(Deposit,Register,\nConclude,Withdraw)


node1 - -> sc : DLT communication\n(Deposit,Register,\nDispute,\nConclude,Withdraw)
watcher2 - -> sc : DLT communication\n(Dispute)

node1 <- -> device1: Informs
funding2 <- -> gateway2: Communicates
watcher2 <- -> gateway2: Informs
gateway2 <- -> device2: Informs

device1 <- -> device2 : Off-chain transactions

@enduml

PlantUML version 1.2021.00(Sun Jan 10 15:55:05 IST 2021)
(GPL source distribution)
Java Runtime: OpenJDK Runtime Environment
JVM: OpenJDK 64-Bit Server VM
Default Encoding: Cp1252
Language: en
Country: IN
--></g></svg>